HIERARCHY
ROOT Hips
{
	OFFSET 54.321800 -17.333614 94.068199
	CHANNELS 6 Xposition Yposition Zposition Xrotation Yrotation Zrotation
	JOINT spine
	{
		OFFSET 0.000000 -0.448574 7.800591
		CHANNELS 3 Xrotation Yrotation Zrotation
		JOINT spine1
		{
			OFFSET 0.000000 -0.000002 10.136398
			CHANNELS 3 Xrotation Yrotation Zrotation
			JOINT spine2
			{
				OFFSET 0.000000 0.000000 9.712509
				CHANNELS 3 Xrotation Yrotation Zrotation
				JOINT Neck
				{
					OFFSET 0.000000 -1.188875 24.936096
					CHANNELS 3 Xrotation Yrotation Zrotation
					JOINT Head
					{
						OFFSET 0.000000 0.000000 7.533844
						CHANNELS 3 Xrotation Yrotation Zrotation
						End Site
						{
							OFFSET 0.000000 6.014017 18.236099
						}
					}
				}
				JOINT RightShoulder
				{
					OFFSET -4.089649 0.569454 10.488800
					CHANNELS 3 Xrotation Yrotation Zrotation
					JOINT RightArm
					{
						OFFSET 0.000000 -0.000002 13.757004
						CHANNELS 3 Xrotation Yrotation Zrotation
						JOINT RightArmRoll
						{
							OFFSET 0.000000 -0.000002 6.944778
							CHANNELS 3 Xrotation Yrotation Zrotation
							JOINT RightForeArm
							{
								OFFSET 0.000000 -0.000004 20.227707
								CHANNELS 3 Xrotation Yrotation Zrotation
								JOINT RightForeArmRoll
								{
									OFFSET 0.000000 0.000000 7.793121
									CHANNELS 3 Xrotation Yrotation Zrotation
									JOINT RightHand
									{
										OFFSET 0.000000 -0.000004 15.639099
										CHANNELS 3 Xrotation Yrotation Zrotation
										End Site
										{
											OFFSET 0.000000 0.000000 0.100006
										}
									}
								}
							}
						}
					}
				}
				JOINT LeftShoulder
				{
					OFFSET 4.089649 0.569454 10.488800
					CHANNELS 3 Xrotation Yrotation Zrotation
					JOINT LeftArm
					{
						OFFSET 0.000000 -0.000002 13.757004
						CHANNELS 3 Xrotation Yrotation Zrotation
						JOINT LeftArmRoll
						{
							OFFSET 0.000000 -0.000002 6.944778
							CHANNELS 3 Xrotation Yrotation Zrotation
							JOINT LeftForeArm
							{
								OFFSET 0.000000 -0.000004 20.227707
								CHANNELS 3 Xrotation Yrotation Zrotation
								JOINT LeftForeArmRoll
								{
									OFFSET 0.000000 0.000000 7.793121
									CHANNELS 3 Xrotation Yrotation Zrotation
									JOINT LeftHand
									{
										OFFSET 0.000000 -0.000004 15.639099
										CHANNELS 3 Xrotation Yrotation Zrotation
										End Site
										{
											OFFSET 0.000000 0.000000 0.100006
										}
									}
								}
							}
						}
					}
				}
			}
		}
	}
	JOINT RightUpLeg
	{
		OFFSET -6.914162 1.063580 -1.267883
		CHANNELS 3 Xrotation Yrotation Zrotation
		JOINT RightUpLegRoll
		{
			OFFSET 0.000000 -0.000002 18.337799
			CHANNELS 3 Xrotation Yrotation Zrotation
			JOINT RightLeg
			{
				OFFSET 0.000000 0.000002 -22.708504
				CHANNELS 3 Xrotation Yrotation Zrotation
				JOINT RightLegRoll
				{
					OFFSET 0.000000 -0.000002 22.782799
					CHANNELS 3 Xrotation Yrotation Zrotation
					JOINT RightFoot
					{
						OFFSET 0.000000 -0.000004 18.962898
						CHANNELS 3 Xrotation Yrotation Zrotation
						JOINT RightToeBase
						{
							OFFSET 0.000000 -0.000002 15.852005
							CHANNELS 3 Xrotation Yrotation Zrotation
							End Site
							{
								OFFSET 0.006718 0.884890 7.677017
							}
						}
					}
				}
			}
		}
	}
	JOINT LeftUpLeg
	{
		OFFSET 6.914162 1.063580 -1.267883
		CHANNELS 3 Xrotation Yrotation Zrotation
		JOINT LeftUpLegRoll
		{
			OFFSET 0.000000 -0.000002 18.337898
			CHANNELS 3 Xrotation Yrotation Zrotation
			JOINT LeftLeg
			{
				OFFSET 0.000000 -0.000004 22.708405
				CHANNELS 3 Xrotation Yrotation Zrotation
				JOINT LeftLegRoll
				{
					OFFSET 0.000000 -0.000004 22.993408
					CHANNELS 3 Xrotation Yrotation Zrotation
					JOINT LeftFoot
					{
						OFFSET 0.000000 -0.000004 18.752197
						CHANNELS 3 Xrotation Yrotation Zrotation
						JOINT LeftToeBase
						{
							OFFSET 0.000000 -0.000002 15.852005
							CHANNELS 3 Xrotation Yrotation Zrotation
							End Site
							{
								OFFSET -0.030113 0.884892 7.677002
							}
						}
					}
				}
			}
		}
	}
}
MOTION
Frames: 4
Frame Time: 0.041667
54.700199 -16.921209 94.077507 -7.661080 0.469096 -2.678631 -1.200140 0.227037 0.263630 1.601520 0.448354 0.529981 3.246593 0.454426 0.524561 23.596873 -2.027900 -2.223139 -23.260515 -11.951519 -3.476885 -16.911635 -76.076771 -20.184520 -59.183364 -121.431666 -126.169440 0.000004 0.000008 0.000007 116.127532 13.554012 -33.694020 -0.000000 0.000013 -3.000001 -5.000193 -7.998783 0.000159 3.174891 65.483585 -2.771990 -47.832477 115.845022 69.423812 0.000001 -0.000001 0.000001 109.384141 -2.763924 14.385140 -0.000000 -0.000005 2.999999 -5.000191 7.999816 -0.000048 1.834636 -174.187965 1.262007 -179.999991 0.000005 -0.965005 168.300205 0.701130 -0.892816 -0.000005 -0.000007 -0.025721 69.761927 5.418232 5.966893 25.458576 -7.355625 0.002539 3.556898 178.266353 5.432033 -0.000005 -0.000004 -1.418480 -11.844713 4.443390 0.729951 -0.000006 0.000001 -0.239447 72.692146 -7.314953 -0.642806 25.456960 7.355615 -0.000000 
54.703499 -16.900715 94.050797 -7.646869 0.468651 -2.678059 -1.204291 0.227508 0.263844 1.593229 0.449866 0.530740 3.238293 0.455953 0.525304 23.596748 -2.077693 -2.214323 -23.249260 -11.903229 -3.464179 -16.913719 -76.059675 -20.186622 -59.255026 -121.408648 -125.959835 0.000005 0.000011 0.000007 116.413799 13.521184 -33.871065 -0.000001 0.000007 -3.000000 -5.000192 -7.998782 0.000160 3.195226 65.474856 -2.796115 -47.772563 115.832440 68.939852 -0.000000 0.000001 -0.000000 109.402787 -2.716740 14.243538 0.000003 -0.000003 3.000003 -5.000197 7.999821 -0.000048 1.814781 -174.191899 1.255500 -179.999991 0.000005 -0.965006 168.287911 0.704028 -0.893055 -0.000005 -0.000007 -0.025485 69.769378 5.418177 5.967217 25.458579 -7.355626 0.002539 3.538659 178.266312 5.434487 -0.000005 -0.000004 -1.418260 -11.853827 4.442343 0.730267 -0.000006 0.000001 -0.239579 72.695643 -7.314195 -0.643862 25.456964 7.355615 -0.000000 
54.695301 -16.908815 94.061211 -7.632156 0.466329 -2.678413 -1.208309 0.227810 0.263813 1.585180 0.451204 0.531053 3.230253 0.457305 0.525604 23.587201 -2.112632 -2.209204 -23.224581 -11.868602 -3.454397 -16.896078 -76.029943 -20.167315 -59.287388 -121.393744 -125.693553 0.000005 0.000009 0.000004 116.699806 13.480616 -34.036072 0.000002 0.000006 -3.000000 -5.000192 -7.998781 0.000159 3.218902 65.470450 -2.823435 -47.722552 115.820187 68.457579 -0.000001 -0.000001 -0.000002 109.422267 -2.667591 14.098584 0.000002 -0.000005 2.999999 -5.000193 7.999819 -0.000046 1.790889 -174.191817 1.250332 -179.999991 0.000005 -0.965005 168.269893 0.705947 -0.893424 -0.000005 -0.000008 -0.025240 69.778749 5.417515 5.969241 25.458574 -7.355626 0.002539 3.518945 178.269262 5.440127 -0.000005 -0.000004 -1.418059 -11.865224 4.440102 0.730622 -0.000005 0.000001 -0.239712 72.700383 -7.313279 -0.645012 25.456964 7.355615 -0.000000 
54.693199 -16.905413 94.049202 -7.617159 0.462394 -2.679703 -1.212191 0.227985 0.263564 1.577420 0.452419 0.530961 3.222485 0.458533 0.525499 23.569535 -2.134443 -2.207264 -23.187891 -11.846196 -3.447108 -16.861657 -75.989645 -20.129799 -59.285017 -121.385698 -125.377616 0.000003 0.000012 0.000008 116.984652 13.433515 -34.189185 0.000002 0.000011 -2.999999 -5.000193 -7.998782 0.000162 3.244844 65.469788 -2.852821 -47.678945 115.809382 67.974295 -0.000001 0.000001 0.000001 109.442252 -2.616718 13.951362 0.000001 -0.000005 3.000001 -5.000192 7.999821 -0.000048 1.763679 -174.188743 1.246341 -179.999991 0.000006 -0.965005 168.246984 0.707843 -0.893732 -0.000005 -0.000007 -0.024990 69.789725 5.416260 5.972881 25.458582 -7.355627 0.002538 3.498145 178.275205 5.448540 -0.000005 -0.000004 -1.417891 -11.878717 4.436800 0.731018 -0.000005 0.000001 -0.239842 72.706271 -7.312245 -0.646169 25.456960 7.355615 -0.000000 
